<?xml version="1.0" encoding="UTF-8" standalone="no"?>
<!DOCTYPE svg PUBLIC "-//W3C//DTD SVG 1.1//EN"
 "http://www.w3.org/Graphics/SVG/1.1/DTD/svg11.dtd">
<!-- Generated by graphviz version 7.0.4 (20221203.1631)
 -->
<!-- Pages: 1 -->
<svg width="1006pt" height="692pt"
 viewBox="0.00 0.00 1005.84 692.00" xmlns="http://www.w3.org/2000/svg" xmlns:xlink="http://www.w3.org/1999/xlink">
<g id="graph0" class="graph" transform="scale(1 1) rotate(0) translate(4 688)">
<polygon fill="white" stroke="none" points="-4,4 -4,-688 1001.84,-688 1001.84,4 -4,4"/>
<!-- [root] azurerm_linux_virtual_machine.mtc&#45;vm (expand) -->
<g id="node1" class="node">
<title>[root] azurerm_linux_virtual_machine.mtc&#45;vm (expand)</title>
<polygon fill="none" stroke="black" points="374.84,-468 138.84,-468 138.84,-432 374.84,-432 374.84,-468"/>
<text text-anchor="middle" x="256.84" y="-446.3" font-family="Times New Roman,serif" font-size="14.00">azurerm_linux_virtual_machine.mtc&#45;vm</text>
</g>
<!-- [root] azurerm_network_interface.mtc&#45;nic (expand) -->
<g id="node2" class="node">
<title>[root] azurerm_network_interface.mtc&#45;nic (expand)</title>
<polygon fill="none" stroke="black" points="363.84,-396 149.84,-396 149.84,-360 363.84,-360 363.84,-396"/>
<text text-anchor="middle" x="256.84" y="-374.3" font-family="Times New Roman,serif" font-size="14.00">azurerm_network_interface.mtc&#45;nic</text>
</g>
<!-- [root] azurerm_linux_virtual_machine.mtc&#45;vm (expand)&#45;&gt;[root] azurerm_network_interface.mtc&#45;nic (expand) -->
<g id="edge1" class="edge">
<title>[root] azurerm_linux_virtual_machine.mtc&#45;vm (expand)&#45;&gt;[root] azurerm_network_interface.mtc&#45;nic (expand)</title>
<path fill="none" stroke="black" d="M256.84,-431.7C256.84,-424.41 256.84,-415.73 256.84,-407.54"/>
<polygon fill="black" stroke="black" points="260.34,-407.62 256.84,-397.62 253.34,-407.62 260.34,-407.62"/>
</g>
<!-- [root] var.host_os -->
<g id="node14" class="node">
<title>[root] var.host_os</title>
<polygon fill="none" stroke="black" points="459.34,-396 382.34,-396 382.34,-360 465.34,-360 465.34,-390 459.34,-396"/>
<polyline fill="none" stroke="black" points="459.34,-396 459.34,-390"/>
<polyline fill="none" stroke="black" points="465.34,-390 459.34,-390"/>
<text text-anchor="middle" x="423.84" y="-374.3" font-family="Times New Roman,serif" font-size="14.00">var.host_os</text>
</g>
<!-- [root] azurerm_linux_virtual_machine.mtc&#45;vm (expand)&#45;&gt;[root] var.host_os -->
<g id="edge2" class="edge">
<title>[root] azurerm_linux_virtual_machine.mtc&#45;vm (expand)&#45;&gt;[root] var.host_os</title>
<path fill="none" stroke="black" d="M298.55,-431.52C320.75,-422.21 348.26,-410.68 371.84,-400.79"/>
<polygon fill="black" stroke="black" points="373.1,-404.06 380.97,-396.97 370.4,-397.6 373.1,-404.06"/>
</g>
<!-- [root] azurerm_public_ip.mtc&#45;ip (expand) -->
<g id="node5" class="node">
<title>[root] azurerm_public_ip.mtc&#45;ip (expand)</title>
<polygon fill="none" stroke="black" points="352.34,-252 191.34,-252 191.34,-216 352.34,-216 352.34,-252"/>
<text text-anchor="middle" x="271.84" y="-230.3" font-family="Times New Roman,serif" font-size="14.00">azurerm_public_ip.mtc&#45;ip</text>
</g>
<!-- [root] azurerm_network_interface.mtc&#45;nic (expand)&#45;&gt;[root] azurerm_public_ip.mtc&#45;ip (expand) -->
<g id="edge3" class="edge">
<title>[root] azurerm_network_interface.mtc&#45;nic (expand)&#45;&gt;[root] azurerm_public_ip.mtc&#45;ip (expand)</title>
<path fill="none" stroke="black" d="M258.67,-359.59C261.21,-335.61 265.8,-292.14 268.83,-263.42"/>
<polygon fill="black" stroke="black" points="272.3,-263.93 269.87,-253.62 265.34,-263.19 272.3,-263.93"/>
</g>
<!-- [root] azurerm_subnet.mtc&#45;subnet (expand) -->
<g id="node7" class="node">
<title>[root] azurerm_subnet.mtc&#45;subnet (expand)</title>
<polygon fill="none" stroke="black" points="559.34,-324 388.34,-324 388.34,-288 559.34,-288 559.34,-324"/>
<text text-anchor="middle" x="473.84" y="-302.3" font-family="Times New Roman,serif" font-size="14.00">azurerm_subnet.mtc&#45;subnet</text>
</g>
<!-- [root] azurerm_network_interface.mtc&#45;nic (expand)&#45;&gt;[root] azurerm_subnet.mtc&#45;subnet (expand) -->
<g id="edge4" class="edge">
<title>[root] azurerm_network_interface.mtc&#45;nic (expand)&#45;&gt;[root] azurerm_subnet.mtc&#45;subnet (expand)</title>
<path fill="none" stroke="black" d="M311.03,-359.52C340.79,-349.92 377.89,-337.95 409.16,-327.86"/>
<polygon fill="black" stroke="black" points="410.07,-331.25 418.51,-324.85 407.92,-324.59 410.07,-331.25"/>
</g>
<!-- [root] azurerm_network_security_group.mtc&#45;sg (expand) -->
<g id="node3" class="node">
<title>[root] azurerm_network_security_group.mtc&#45;sg (expand)</title>
<polygon fill="none" stroke="black" points="769.34,-468 522.34,-468 522.34,-432 769.34,-432 769.34,-468"/>
<text text-anchor="middle" x="645.84" y="-446.3" font-family="Times New Roman,serif" font-size="14.00">azurerm_network_security_group.mtc&#45;sg</text>
</g>
<!-- [root] azurerm_resource_group.mtc&#45;rg (expand) -->
<g id="node6" class="node">
<title>[root] azurerm_resource_group.mtc&#45;rg (expand)</title>
<polygon fill="none" stroke="black" points="572.34,-180 375.34,-180 375.34,-144 572.34,-144 572.34,-180"/>
<text text-anchor="middle" x="473.84" y="-158.3" font-family="Times New Roman,serif" font-size="14.00">azurerm_resource_group.mtc&#45;rg</text>
</g>
<!-- [root] azurerm_network_security_group.mtc&#45;sg (expand)&#45;&gt;[root] azurerm_resource_group.mtc&#45;rg (expand) -->
<g id="edge5" class="edge">
<title>[root] azurerm_network_security_group.mtc&#45;sg (expand)&#45;&gt;[root] azurerm_resource_group.mtc&#45;rg (expand)</title>
<path fill="none" stroke="black" d="M645.72,-431.61C644.56,-389.68 636.13,-281.61 581.84,-216 571.02,-202.93 556.2,-192.82 541,-185.11"/>
<polygon fill="black" stroke="black" points="542.9,-182.14 532.37,-181.02 539.91,-188.46 542.9,-182.14"/>
</g>
<!-- [root] azurerm_network_security_rule.mtc&#45;dev&#45;rule (expand) -->
<g id="node4" class="node">
<title>[root] azurerm_network_security_rule.mtc&#45;dev&#45;rule (expand)</title>
<polygon fill="none" stroke="black" points="997.84,-540 731.84,-540 731.84,-504 997.84,-504 997.84,-540"/>
<text text-anchor="middle" x="864.84" y="-518.3" font-family="Times New Roman,serif" font-size="14.00">azurerm_network_security_rule.mtc&#45;dev&#45;rule</text>
</g>
<!-- [root] azurerm_network_security_rule.mtc&#45;dev&#45;rule (expand)&#45;&gt;[root] azurerm_network_security_group.mtc&#45;sg (expand) -->
<g id="edge6" class="edge">
<title>[root] azurerm_network_security_rule.mtc&#45;dev&#45;rule (expand)&#45;&gt;[root] azurerm_network_security_group.mtc&#45;sg (expand)</title>
<path fill="none" stroke="black" d="M810.14,-503.52C780.11,-493.92 742.66,-481.95 711.11,-471.86"/>
<polygon fill="black" stroke="black" points="712.25,-468.55 701.66,-468.84 710.12,-475.22 712.25,-468.55"/>
</g>
<!-- [root] azurerm_public_ip.mtc&#45;ip (expand)&#45;&gt;[root] azurerm_resource_group.mtc&#45;rg (expand) -->
<g id="edge7" class="edge">
<title>[root] azurerm_public_ip.mtc&#45;ip (expand)&#45;&gt;[root] azurerm_resource_group.mtc&#45;rg (expand)</title>
<path fill="none" stroke="black" d="M322.29,-215.52C349.75,-206 383.92,-194.16 412.87,-184.13"/>
<polygon fill="black" stroke="black" points="413.94,-187.46 422.25,-180.88 411.65,-180.84 413.94,-187.46"/>
</g>
<!-- [root] provider[&quot;registry.terraform.io/hashicorp/azurerm&quot;] -->
<g id="node11" class="node">
<title>[root] provider[&quot;registry.terraform.io/hashicorp/azurerm&quot;]</title>
<polygon fill="none" stroke="black" points="473.84,-108 196.16,-90 473.84,-72 751.51,-90 473.84,-108"/>
<text text-anchor="middle" x="473.84" y="-86.3" font-family="Times New Roman,serif" font-size="14.00">provider[&quot;registry.terraform.io/hashicorp/azurerm&quot;]</text>
</g>
<!-- [root] azurerm_resource_group.mtc&#45;rg (expand)&#45;&gt;[root] provider[&quot;registry.terraform.io/hashicorp/azurerm&quot;] -->
<g id="edge8" class="edge">
<title>[root] azurerm_resource_group.mtc&#45;rg (expand)&#45;&gt;[root] provider[&quot;registry.terraform.io/hashicorp/azurerm&quot;]</title>
<path fill="none" stroke="black" d="M473.84,-143.7C473.84,-136.41 473.84,-127.73 473.84,-119.54"/>
<polygon fill="black" stroke="black" points="477.34,-119.62 473.84,-109.62 470.34,-119.62 477.34,-119.62"/>
</g>
<!-- [root] azurerm_virtual_network.mtc&#45;vn (expand) -->
<g id="node9" class="node">
<title>[root] azurerm_virtual_network.mtc&#45;vn (expand)</title>
<polygon fill="none" stroke="black" points="572.34,-252 375.34,-252 375.34,-216 572.34,-216 572.34,-252"/>
<text text-anchor="middle" x="473.84" y="-230.3" font-family="Times New Roman,serif" font-size="14.00">azurerm_virtual_network.mtc&#45;vn</text>
</g>
<!-- [root] azurerm_subnet.mtc&#45;subnet (expand)&#45;&gt;[root] azurerm_virtual_network.mtc&#45;vn (expand) -->
<g id="edge9" class="edge">
<title>[root] azurerm_subnet.mtc&#45;subnet (expand)&#45;&gt;[root] azurerm_virtual_network.mtc&#45;vn (expand)</title>
<path fill="none" stroke="black" d="M473.84,-287.7C473.84,-280.41 473.84,-271.73 473.84,-263.54"/>
<polygon fill="black" stroke="black" points="477.34,-263.62 473.84,-253.62 470.34,-263.62 477.34,-263.62"/>
</g>
<!-- [root] azurerm_subnet_network_security_group_association.mtc&#45;sga (expand) -->
<g id="node8" class="node">
<title>[root] azurerm_subnet_network_security_group_association.mtc&#45;sga (expand)</title>
<polygon fill="none" stroke="black" points="713.34,-540 346.34,-540 346.34,-504 713.34,-504 713.34,-540"/>
<text text-anchor="middle" x="529.84" y="-518.3" font-family="Times New Roman,serif" font-size="14.00">azurerm_subnet_network_security_group_association.mtc&#45;sga</text>
</g>
<!-- [root] azurerm_subnet_network_security_group_association.mtc&#45;sga (expand)&#45;&gt;[root] azurerm_network_security_group.mtc&#45;sg (expand) -->
<g id="edge10" class="edge">
<title>[root] azurerm_subnet_network_security_group_association.mtc&#45;sga (expand)&#45;&gt;[root] azurerm_network_security_group.mtc&#45;sg (expand)</title>
<path fill="none" stroke="black" d="M558.81,-503.52C573.59,-494.6 591.76,-483.63 607.67,-474.03"/>
<polygon fill="black" stroke="black" points="609.18,-477.21 615.94,-469.04 605.57,-471.21 609.18,-477.21"/>
</g>
<!-- [root] azurerm_subnet_network_security_group_association.mtc&#45;sga (expand)&#45;&gt;[root] azurerm_subnet.mtc&#45;subnet (expand) -->
<g id="edge11" class="edge">
<title>[root] azurerm_subnet_network_security_group_association.mtc&#45;sga (expand)&#45;&gt;[root] azurerm_subnet.mtc&#45;subnet (expand)</title>
<path fill="none" stroke="black" d="M524.43,-503.88C521.22,-493.53 517.15,-480.05 513.84,-468 501.12,-421.75 488.02,-367.54 480.42,-335.29"/>
<polygon fill="black" stroke="black" points="483.91,-334.88 478.22,-325.94 477.1,-336.47 483.91,-334.88"/>
</g>
<!-- [root] azurerm_virtual_network.mtc&#45;vn (expand)&#45;&gt;[root] azurerm_resource_group.mtc&#45;rg (expand) -->
<g id="edge12" class="edge">
<title>[root] azurerm_virtual_network.mtc&#45;vn (expand)&#45;&gt;[root] azurerm_resource_group.mtc&#45;rg (expand)</title>
<path fill="none" stroke="black" d="M473.84,-215.7C473.84,-208.41 473.84,-199.73 473.84,-191.54"/>
<polygon fill="black" stroke="black" points="477.34,-191.62 473.84,-181.62 470.34,-191.62 477.34,-191.62"/>
</g>
<!-- [root] data.azurerm_public_ip.mtc&#45;ip&#45;data (expand) -->
<g id="node10" class="node">
<title>[root] data.azurerm_public_ip.mtc&#45;ip&#45;data (expand)</title>
<polygon fill="none" stroke="black" points="328.34,-540 113.34,-540 113.34,-504 328.34,-504 328.34,-540"/>
<text text-anchor="middle" x="220.84" y="-518.3" font-family="Times New Roman,serif" font-size="14.00">data.azurerm_public_ip.mtc&#45;ip&#45;data</text>
</g>
<!-- [root] data.azurerm_public_ip.mtc&#45;ip&#45;data (expand)&#45;&gt;[root] azurerm_linux_virtual_machine.mtc&#45;vm (expand) -->
<g id="edge13" class="edge">
<title>[root] data.azurerm_public_ip.mtc&#45;ip&#45;data (expand)&#45;&gt;[root] azurerm_linux_virtual_machine.mtc&#45;vm (expand)</title>
<path fill="none" stroke="black" d="M229.73,-503.7C233.7,-495.98 238.47,-486.71 242.89,-478.11"/>
<polygon fill="black" stroke="black" points="245.89,-479.94 247.35,-469.45 239.66,-476.74 245.89,-479.94"/>
</g>
<!-- [root] var.client_id -->
<g id="node12" class="node">
<title>[root] var.client_id</title>
<polygon fill="none" stroke="black" points="329.34,-36 250.34,-36 250.34,0 335.34,0 335.34,-30 329.34,-36"/>
<polyline fill="none" stroke="black" points="329.34,-36 329.34,-30"/>
<polyline fill="none" stroke="black" points="335.34,-30 329.34,-30"/>
<text text-anchor="middle" x="292.84" y="-14.3" font-family="Times New Roman,serif" font-size="14.00">var.client_id</text>
</g>
<!-- [root] provider[&quot;registry.terraform.io/hashicorp/azurerm&quot;]&#45;&gt;[root] var.client_id -->
<g id="edge18" class="edge">
<title>[root] provider[&quot;registry.terraform.io/hashicorp/azurerm&quot;]&#45;&gt;[root] var.client_id</title>
<path fill="none" stroke="black" d="M435.45,-74.15C409.5,-64.12 374.88,-50.73 346.25,-39.66"/>
<polygon fill="black" stroke="black" points="347.6,-36.43 337.01,-36.09 345.08,-42.96 347.6,-36.43"/>
</g>
<!-- [root] var.client_secret -->
<g id="node13" class="node">
<title>[root] var.client_secret</title>
<polygon fill="none" stroke="black" points="454.34,-36 353.34,-36 353.34,0 460.34,0 460.34,-30 454.34,-36"/>
<polyline fill="none" stroke="black" points="454.34,-36 454.34,-30"/>
<polyline fill="none" stroke="black" points="460.34,-30 454.34,-30"/>
<text text-anchor="middle" x="406.84" y="-14.3" font-family="Times New Roman,serif" font-size="14.00">var.client_secret</text>
</g>
<!-- [root] provider[&quot;registry.terraform.io/hashicorp/azurerm&quot;]&#45;&gt;[root] var.client_secret -->
<g id="edge19" class="edge">
<title>[root] provider[&quot;registry.terraform.io/hashicorp/azurerm&quot;]&#45;&gt;[root] var.client_secret</title>
<path fill="none" stroke="black" d="M458.3,-72.76C450.25,-64.35 440.23,-53.89 431.18,-44.44"/>
<polygon fill="black" stroke="black" points="433.72,-42.02 424.27,-37.22 428.66,-46.86 433.72,-42.02"/>
</g>
<!-- [root] var.subscription_id -->
<g id="node15" class="node">
<title>[root] var.subscription_id</title>
<polygon fill="none" stroke="black" points="597.34,-36 478.34,-36 478.34,0 603.34,0 603.34,-30 597.34,-36"/>
<polyline fill="none" stroke="black" points="597.34,-36 597.34,-30"/>
<polyline fill="none" stroke="black" points="603.34,-30 597.34,-30"/>
<text text-anchor="middle" x="540.84" y="-14.3" font-family="Times New Roman,serif" font-size="14.00">var.subscription_id</text>
</g>
<!-- [root] provider[&quot;registry.terraform.io/hashicorp/azurerm&quot;]&#45;&gt;[root] var.subscription_id -->
<g id="edge20" class="edge">
<title>[root] provider[&quot;registry.terraform.io/hashicorp/azurerm&quot;]&#45;&gt;[root] var.subscription_id</title>
<path fill="none" stroke="black" d="M489.38,-72.76C497.43,-64.35 507.44,-53.89 516.49,-44.44"/>
<polygon fill="black" stroke="black" points="519.01,-46.86 523.4,-37.22 513.96,-42.02 519.01,-46.86"/>
</g>
<!-- [root] var.tenant_id -->
<g id="node16" class="node">
<title>[root] var.tenant_id</title>
<polygon fill="none" stroke="black" points="704.34,-36 621.34,-36 621.34,0 710.34,0 710.34,-30 704.34,-36"/>
<polyline fill="none" stroke="black" points="704.34,-36 704.34,-30"/>
<polyline fill="none" stroke="black" points="710.34,-30 704.34,-30"/>
<text text-anchor="middle" x="665.84" y="-14.3" font-family="Times New Roman,serif" font-size="14.00">var.tenant_id</text>
</g>
<!-- [root] provider[&quot;registry.terraform.io/hashicorp/azurerm&quot;]&#45;&gt;[root] var.tenant_id -->
<g id="edge21" class="edge">
<title>[root] provider[&quot;registry.terraform.io/hashicorp/azurerm&quot;]&#45;&gt;[root] var.tenant_id</title>
<path fill="none" stroke="black" d="M514.55,-74.15C542.52,-63.96 579.98,-50.3 610.62,-39.13"/>
<polygon fill="black" stroke="black" points="611.54,-42.52 619.73,-35.81 609.14,-35.95 611.54,-42.52"/>
</g>
<!-- [root] output.public_ip_address (expand) -->
<g id="node17" class="node">
<title>[root] output.public_ip_address (expand)</title>
<ellipse fill="none" stroke="black" cx="161.84" cy="-594" rx="161.67" ry="18"/>
<text text-anchor="middle" x="161.84" y="-590.3" font-family="Times New Roman,serif" font-size="14.00">[root] output.public_ip_address (expand)</text>
</g>
<!-- [root] output.public_ip_address (expand)&#45;&gt;[root] data.azurerm_public_ip.mtc&#45;ip&#45;data (expand) -->
<g id="edge14" class="edge">
<title>[root] output.public_ip_address (expand)&#45;&gt;[root] data.azurerm_public_ip.mtc&#45;ip&#45;data (expand)</title>
<path fill="none" stroke="black" d="M176.42,-575.7C183.28,-567.56 191.6,-557.69 199.17,-548.7"/>
<polygon fill="black" stroke="black" points="201.68,-551.16 205.44,-541.26 196.32,-546.65 201.68,-551.16"/>
</g>
<!-- [root] provider[&quot;registry.terraform.io/hashicorp/azurerm&quot;] (close) -->
<g id="node18" class="node">
<title>[root] provider[&quot;registry.terraform.io/hashicorp/azurerm&quot;] (close)</title>
<ellipse fill="none" stroke="black" cx="588.84" cy="-594" rx="246.96" ry="18"/>
<text text-anchor="middle" x="588.84" y="-590.3" font-family="Times New Roman,serif" font-size="14.00">[root] provider[&quot;registry.terraform.io/hashicorp/azurerm&quot;] (close)</text>
</g>
<!-- [root] provider[&quot;registry.terraform.io/hashicorp/azurerm&quot;] (close)&#45;&gt;[root] azurerm_network_security_rule.mtc&#45;dev&#45;rule (expand) -->
<g id="edge15" class="edge">
<title>[root] provider[&quot;registry.terraform.io/hashicorp/azurerm&quot;] (close)&#45;&gt;[root] azurerm_network_security_rule.mtc&#45;dev&#45;rule (expand)</title>
<path fill="none" stroke="black" d="M654.94,-576.23C693.95,-566.34 743.58,-553.75 784.79,-543.3"/>
<polygon fill="black" stroke="black" points="785.6,-546.71 794.43,-540.86 783.88,-539.92 785.6,-546.71"/>
</g>
<!-- [root] provider[&quot;registry.terraform.io/hashicorp/azurerm&quot;] (close)&#45;&gt;[root] azurerm_subnet_network_security_group_association.mtc&#45;sga (expand) -->
<g id="edge16" class="edge">
<title>[root] provider[&quot;registry.terraform.io/hashicorp/azurerm&quot;] (close)&#45;&gt;[root] azurerm_subnet_network_security_group_association.mtc&#45;sga (expand)</title>
<path fill="none" stroke="black" d="M574.25,-575.7C567.39,-567.56 559.07,-557.69 551.5,-548.7"/>
<polygon fill="black" stroke="black" points="554.35,-546.65 545.23,-541.26 549,-551.16 554.35,-546.65"/>
</g>
<!-- [root] provider[&quot;registry.terraform.io/hashicorp/azurerm&quot;] (close)&#45;&gt;[root] data.azurerm_public_ip.mtc&#45;ip&#45;data (expand) -->
<g id="edge17" class="edge">
<title>[root] provider[&quot;registry.terraform.io/hashicorp/azurerm&quot;] (close)&#45;&gt;[root] data.azurerm_public_ip.mtc&#45;ip&#45;data (expand)</title>
<path fill="none" stroke="black" d="M503.02,-576.68C449.46,-566.49 380.2,-553.31 323.7,-542.57"/>
<polygon fill="black" stroke="black" points="324.55,-539.17 314.07,-540.73 323.24,-546.04 324.55,-539.17"/>
</g>
<!-- [root] root -->
<g id="node19" class="node">
<title>[root] root</title>
<ellipse fill="none" stroke="black" cx="374.84" cy="-666" rx="49.29" ry="18"/>
<text text-anchor="middle" x="374.84" y="-662.3" font-family="Times New Roman,serif" font-size="14.00">[root] root</text>
</g>
<!-- [root] root&#45;&gt;[root] output.public_ip_address (expand) -->
<g id="edge22" class="edge">
<title>[root] root&#45;&gt;[root] output.public_ip_address (expand)</title>
<path fill="none" stroke="black" d="M339.18,-653.28C307.49,-642.87 260.49,-627.42 222.83,-615.04"/>
<polygon fill="black" stroke="black" points="224.01,-611.75 213.41,-611.95 221.82,-618.4 224.01,-611.75"/>
</g>
<!-- [root] root&#45;&gt;[root] provider[&quot;registry.terraform.io/hashicorp/azurerm&quot;] (close) -->
<g id="edge23" class="edge">
<title>[root] root&#45;&gt;[root] provider[&quot;registry.terraform.io/hashicorp/azurerm&quot;] (close)</title>
<path fill="none" stroke="black" d="M410.65,-653.28C442.06,-643.01 488.44,-627.84 526.01,-615.55"/>
<polygon fill="black" stroke="black" points="527,-618.91 535.41,-612.47 524.82,-612.26 527,-618.91"/>
</g>
</g>
</svg>
